<?xml version="1.0" encoding="utf-8"?>
<!-- Generator: Adobe Illustrator 16.0.0, SVG Export Plug-In . SVG Version: 6.00 Build 0)  -->
<!DOCTYPE svg PUBLIC "-//W3C//DTD SVG 1.1//EN" "http://www.w3.org/Graphics/SVG/1.1/DTD/svg11.dtd">
<svg version="1.1" id="Layer_1" xmlns="http://www.w3.org/2000/svg" xmlns:xlink="http://www.w3.org/1999/xlink" x="0px" y="0px"
	 width="406.624px" preserveAspectRatio="none" height="96.227px" viewBox="-0.218 0 406.624 96.227" enable-background="new -0.218 0 406.624 96.227"
	 xml:space="preserve">
<title>Group 4</title>
<desc>Created with Sketch.</desc>
<polygon id="Rectangle-4" fill="#FFFFFF" points="-0.218,0 406.406,0 406.406,93 191.544,90.062 -0.218,78.01 "/>
<path id="Combined-Shape" fill="#182B49" d="M406.406,38.063v55.888c-35.662,1.482-73.275,2.275-112.141,2.275
	c-115.249,0-219.488-6.971-294.483-18.217c26.277,1.248,57.169,2.351,93.342,3.156c180.671,4.023,313.282-17.148,313.282-17.148
	V38.063z"/>
<path id="Combined-Shape_1_" fill="#E00034" d="M406.406,38.063v38.271c-59.865,6.534-131.918,10.347-209.448,10.347
	c-69.122,0-133.889-3.03-189.548-8.318c24.577,1.103,52.984,2.075,85.713,2.804c180.671,4.023,313.282-17.148,313.282-17.148V38.063
	z"/>
</svg>
